<!DOCTYPE svg PUBLIC "-//W3C//DTD SVG 1.1//EN" "http://www.w3.org/Graphics/SVG/1.1/DTD/svg11.dtd">
<!-- Uploaded to: SVG Repo, www.svgrepo.com, Transformed by: SVG Repo Mixer Tools -->
<svg fill="rgba(178, 111, 227, 0.4)" height="64px" width="64px" version="1.1" id="Layer_1" xmlns="http://www.w3.org/2000/svg" xmlns:xlink="http://www.w3.org/1999/xlink" viewBox="0 0 512.00 512.00" xml:space="preserve" stroke="rgba(178, 111, 227, 0.4)">
<g id="SVGRepo_bgCarrier" stroke-width="0"/>
<g id="SVGRepo_tracerCarrier" stroke-linecap="round" stroke-linejoin="round"/>
<g id="SVGRepo_iconCarrier"> <g> <g> <g> <path d="M492.424,67.954H19.576C8.782,67.954,0,76.735,0,87.529v336.941c0,10.794,8.782,19.576,19.576,19.576h472.849 c10.794,0,19.576-8.782,19.576-19.576V87.529C512,76.735,503.218,67.954,492.424,67.954z M495.877,424.471 c0,1.904-1.548,3.453-3.453,3.453H19.576c-1.905,0-3.453-1.549-3.453-3.453V87.529c0-1.904,1.548-3.452,3.453-3.452h472.849 c1.904,0,3.453,1.549,3.453,3.452V424.471z"/> <path d="M471.692,100.2H40.308c-4.453,0-8.062,3.609-8.062,8.062v295.477c0,4.452,3.608,8.062,8.062,8.062h431.384 c4.453,0,8.062-3.609,8.062-8.062V108.262C479.754,103.809,476.145,100.2,471.692,100.2z M335.959,214.816h11.969l-11.969,18.039 V214.816z M192.164,214.816h36.557l-36.557,55.095V214.816z M257.832,258.181c11.643,0,22.98-2.757,33.21-8.028l19.677,29.656 c1.494,2.252,4.015,3.605,6.717,3.605c0.827,0,1.631-0.141,2.399-0.382v14.152H193.416l31.206-47.031 C234.853,255.423,246.19,258.181,257.832,258.181z M233.609,236.61l14.461-21.794h19.524l14.461,21.794 c-7.528,3.579-15.772,5.449-24.223,5.449C249.38,242.058,241.138,240.19,233.609,236.61z M48.369,395.677v-82.369h115 l-54.653,82.369H48.369z M176.041,395.677h-47.977l47.977-72.306V395.677z M176.041,294.21l-1.974,2.974H48.369v-82.369h127.672 V294.21z M122.128,164.992c0-12.802,10.416-23.217,23.218-23.217c12.802,0,23.217,10.416,23.217,23.217 c0,12.802-10.414,23.217-23.217,23.217C132.545,188.211,122.128,177.795,122.128,164.992z M176.041,198.693h-10.42 c3.991-2.41,7.516-5.513,10.42-9.134V198.693z M176.041,140.427c-7.216-8.998-18.29-14.775-30.695-14.775 c-21.693,0-39.342,17.648-39.342,39.34c0,14.281,7.65,26.805,19.065,33.7h-76.7v-82.369h127.672V140.427z M192.164,395.677 v-82.369h127.671v82.369H192.164z M319.836,257.153l-2.399,3.617l-30.492-45.954h32.891V257.153z M319.837,198.693h-0.001 h-43.589l-3.373-5.083c-3.354-5.054-8.976-8.07-15.041-8.07c-6.066,0-11.687,3.017-15.04,8.07l-3.373,5.083h-47.254v-82.37 h127.671V198.693z M463.631,395.677H335.959v-82.369h127.672V395.677z M463.631,297.184H335.959v-35.169l24.685-37.201 c16.155,9.089,34.34,13.861,53.059,13.861c17.52,0,34.57-4.183,49.928-12.17V297.184z M450.708,214.816 c-11.593,5.082-24.148,7.736-37.006,7.736c-12.859,0-25.413-2.653-37.006-7.736H450.708z M377.975,198.693l34.122-51.426 c0.473-0.715,1.136-0.864,1.608-0.864c0.471,0,1.129,0.148,1.598,0.858l34.127,51.433H377.975z M463.631,190.931L463.631,190.931 l-34.891-52.585c-3.353-5.052-8.973-8.067-15.034-8.067c-6.065,0-11.689,3.018-15.043,8.073l-40.037,60.34h-22.667v-82.37 h127.672V190.931z"/> </g> </g> </g> </g>
</svg>